<?xml version="1.0" standalone="no"?>
<!DOCTYPE svg PUBLIC "-//W3C//DTD SVG 20010904//EN"
 "http://www.w3.org/TR/2001/REC-SVG-20010904/DTD/svg10.dtd">
<svg version="1.0" xmlns="http://www.w3.org/2000/svg"
 width="512.000000pt" height="512.000000pt" viewBox="0 0 512.000000 512.000000"
 preserveAspectRatio="xMidYMid meet">
<metadata>
Created by potrace 1.14, written by Peter Selinger 2001-2017
</metadata>
<g transform="translate(0.000000,512.000000) scale(0.100000,-0.100000)"
fill="#000000" stroke="none">
<path d="M2800 5109 c-322 -33 -678 -160 -945 -336 -542 -358 -886 -935 -946
-1588 -40 -446 84 -940 332 -1320 27 -42 49 -79 49 -83 0 -4 -42 -49 -93 -100
l-93 -93 -24 27 c-38 40 -85 57 -124 44 -41 -13 -842 -815 -880 -881 -122
-212 -92 -453 79 -625 81 -81 149 -118 266 -142 105 -22 210 -7 317 44 73 35
97 56 494 452 286 285 421 426 428 448 13 39 -4 86 -44 124 l-27 24 93 93 c51
51 96 93 100 93 4 0 45 -24 90 -54 236 -153 531 -264 833 -312 152 -25 458
-25 610 0 936 150 1639 855 1782 1786 24 157 24 454 -1 605 -74 464 -280 869
-604 1191 -444 441 -1075 666 -1692 603z m375 -199 c399 -38 761 -189 1061
-441 805 -679 909 -1874 232 -2684 -559 -670 -1512 -872 -2295 -486 -508 250
-875 703 -1011 1247 -42 166 -56 284 -56 464 0 184 14 300 59 475 153 600 587
1083 1177 1311 111 43 298 89 419 103 52 6 108 13 124 15 65 7 185 5 290 -4z
m-1654 -3391 l101 -101 -86 -87 -86 -86 -102 102 -103 103 85 85 c46 47 86 85
87 85 2 0 49 -46 104 -101z m-314 -311 c117 -117 213 -217 213 -223 0 -6 -32
-42 -70 -80 l-70 -70 -222 222 -221 221 73 71 c40 39 76 71 79 71 3 0 101 -96
218 -212z m-293 -292 c119 -118 216 -218 216 -223 0 -5 -98 -106 -217 -224
-253 -250 -273 -263 -398 -263 -100 -1 -166 27 -226 91 -63 68 -84 123 -84
218 1 125 14 145 264 398 118 119 218 217 222 217 4 0 104 -96 223 -214z"/>
<path d="M2827 4630 c-487 -62 -905 -318 -1173 -720 -453 -682 -328 -1598 291
-2134 500 -432 1219 -518 1805 -215 347 180 614 468 765 827 53 126 44 187
-29 212 -55 18 -102 -7 -127 -67 -49 -117 -143 -294 -191 -358 -66 -88 -175
-203 -253 -268 l-60 -50 -5 259 c-5 259 -5 259 -33 316 -34 70 -101 131 -170
155 -48 17 -99 18 -637 18 -538 0 -589 -1 -637 -18 -69 -24 -136 -85 -170
-155 -28 -57 -28 -57 -33 -316 l-5 -259 -61 50 c-260 217 -430 504 -496 835
-28 147 -30 377 -4 518 37 194 113 380 224 550 73 111 269 307 382 381 169
112 362 191 554 226 127 23 381 23 501 -1 492 -97 879 -413 1070 -875 43 -103
58 -121 112 -128 32 -4 45 0 70 21 49 41 50 71 7 178 -177 447 -554 801 -1009
948 -162 52 -272 70 -455 75 -91 2 -196 0 -233 -5z m778 -2246 c41 -27 45 -60
45 -364 l0 -287 -102 -41 c-189 -75 -335 -102 -546 -102 -202 0 -371 34 -559
112 l-73 30 0 289 c0 305 5 343 47 368 12 7 202 10 591 11 503 0 576 -2 597
-16z"/>
<path d="M2870 4126 c-265 -56 -475 -255 -541 -514 -26 -102 -26 -253 1 -356
61 -240 258 -437 504 -504 85 -23 269 -22 356 2 197 54 363 191 450 371 51
105 70 187 70 310 0 123 -19 206 -70 310 -89 182 -253 318 -446 370 -82 23
-244 28 -324 11z m259 -201 c92 -22 171 -68 241 -140 192 -200 192 -500 0
-700 -243 -252 -655 -186 -811 130 -118 239 -29 523 206 661 102 59 241 78
364 49z"/>
<path d="M4513 3068 c-109 -29 -88 -189 25 -192 59 -1 97 37 97 98 0 70 -55
112 -122 94z"/>
</g>
</svg>
